<?xml version="1.0" encoding="UTF-8" standalone="no"?>
<svg
   xmlns:dc="http://purl.org/dc/elements/1.1/"
   xmlns:cc="http://creativecommons.org/ns#"
   xmlns:rdf="http://www.w3.org/1999/02/22-rdf-syntax-ns#"
   xmlns:svg="http://www.w3.org/2000/svg"
   xmlns="http://www.w3.org/2000/svg"
   xmlns:sodipodi="http://sodipodi.sourceforge.net/DTD/sodipodi-0.dtd"
   xmlns:inkscape="http://www.inkscape.org/namespaces/inkscape"
   version="1.1"
   id="Layer_1"
   x="0px"
   y="0px"
   viewBox="0 0 735 852"
   style="enable-background:new 0 0 735 852;"
   xml:space="preserve"
   sodipodi:docname="stratigraphr_logo.svg"
   inkscape:version="1.0.1 (3bc2e813f5, 2020-09-07)"><metadata
   id="metadata58"><rdf:RDF><cc:Work
       rdf:about=""><dc:format>image/svg+xml</dc:format><dc:type
         rdf:resource="http://purl.org/dc/dcmitype/StillImage" /><dc:title>shiny</dc:title></cc:Work></rdf:RDF></metadata><defs
   id="defs56"><marker
     style="overflow:visible;"
     id="marker2487"
     refX="0.0"
     refY="0.0"
     orient="auto"
     inkscape:stockid="Arrow1Send"
     inkscape:isstock="true"><path
       transform="scale(0.2) rotate(180) translate(6,0)"
       style="fill-rule:evenodd;stroke:#79740e;stroke-width:1pt;stroke-opacity:1;fill:#79740e;fill-opacity:1"
       d="M 0.0,0.0 L 5.0,-5.0 L -12.5,0.0 L 5.0,5.0 L 0.0,0.0 z "
       id="path2485" /></marker><marker
     style="overflow:visible;"
     id="marker2477"
     refX="0.0"
     refY="0.0"
     orient="auto"
     inkscape:stockid="Arrow1Send"
     inkscape:isstock="true"><path
       transform="scale(0.2) rotate(180) translate(6,0)"
       style="fill-rule:evenodd;stroke:#79740e;stroke-width:1pt;stroke-opacity:1;fill:#79740e;fill-opacity:1"
       d="M 0.0,0.0 L 5.0,-5.0 L -12.5,0.0 L 5.0,5.0 L 0.0,0.0 z "
       id="path2475" /></marker><marker
     style="overflow:visible;"
     id="marker2467"
     refX="0.0"
     refY="0.0"
     orient="auto"
     inkscape:stockid="Arrow1Send"
     inkscape:isstock="true"><path
       transform="scale(0.2) rotate(180) translate(6,0)"
       style="fill-rule:evenodd;stroke:#79740e;stroke-width:1pt;stroke-opacity:1;fill:#79740e;fill-opacity:1"
       d="M 0.0,0.0 L 5.0,-5.0 L -12.5,0.0 L 5.0,5.0 L 0.0,0.0 z "
       id="path2465" /></marker><marker
     style="overflow:visible;"
     id="marker2457"
     refX="0.0"
     refY="0.0"
     orient="auto"
     inkscape:stockid="Arrow1Send"
     inkscape:isstock="true"><path
       transform="scale(0.2) rotate(180) translate(6,0)"
       style="fill-rule:evenodd;stroke:#79740e;stroke-width:1pt;stroke-opacity:1;fill:#79740e;fill-opacity:1"
       d="M 0.0,0.0 L 5.0,-5.0 L -12.5,0.0 L 5.0,5.0 L 0.0,0.0 z "
       id="path2455" /></marker><marker
     style="overflow:visible;"
     id="marker2447"
     refX="0.0"
     refY="0.0"
     orient="auto"
     inkscape:stockid="Arrow1Send"
     inkscape:isstock="true"><path
       transform="scale(0.2) rotate(180) translate(6,0)"
       style="fill-rule:evenodd;stroke:#79740e;stroke-width:1pt;stroke-opacity:1;fill:#79740e;fill-opacity:1"
       d="M 0.0,0.0 L 5.0,-5.0 L -12.5,0.0 L 5.0,5.0 L 0.0,0.0 z "
       id="path2445" /></marker><marker
     style="overflow:visible"
     id="marker2249"
     refX="0.0"
     refY="0.0"
     orient="auto"
     inkscape:stockid="TriangleOutS"
     inkscape:isstock="true"><path
       transform="scale(0.2)"
       style="fill-rule:evenodd;stroke:#79740e;stroke-width:1pt;stroke-opacity:1;fill:#79740e;fill-opacity:1"
       d="M 5.77,0.0 L -2.88,5.0 L -2.88,-5.0 L 5.77,0.0 z "
       id="path2247" /></marker><marker
     style="overflow:visible"
     id="marker2239"
     refX="0.0"
     refY="0.0"
     orient="auto"
     inkscape:stockid="TriangleOutS"
     inkscape:isstock="true"><path
       transform="scale(0.2)"
       style="fill-rule:evenodd;stroke:#79740e;stroke-width:1pt;stroke-opacity:1;fill:#79740e;fill-opacity:1"
       d="M 5.77,0.0 L -2.88,5.0 L -2.88,-5.0 L 5.77,0.0 z "
       id="path2237" /></marker><marker
     style="overflow:visible"
     id="marker2229"
     refX="0.0"
     refY="0.0"
     orient="auto"
     inkscape:stockid="TriangleOutS"
     inkscape:isstock="true"><path
       transform="scale(0.2)"
       style="fill-rule:evenodd;stroke:#79740e;stroke-width:1pt;stroke-opacity:1;fill:#79740e;fill-opacity:1"
       d="M 5.77,0.0 L -2.88,5.0 L -2.88,-5.0 L 5.77,0.0 z "
       id="path2227" /></marker><marker
     style="overflow:visible"
     id="marker2219"
     refX="0.0"
     refY="0.0"
     orient="auto"
     inkscape:stockid="TriangleOutS"
     inkscape:isstock="true"><path
       transform="scale(0.2)"
       style="fill-rule:evenodd;stroke:#79740e;stroke-width:1pt;stroke-opacity:1;fill:#79740e;fill-opacity:1"
       d="M 5.77,0.0 L -2.88,5.0 L -2.88,-5.0 L 5.77,0.0 z "
       id="path2217" /></marker><marker
     style="overflow:visible"
     id="marker2209"
     refX="0.0"
     refY="0.0"
     orient="auto"
     inkscape:stockid="TriangleOutS"
     inkscape:isstock="true"><path
       transform="scale(0.2)"
       style="fill-rule:evenodd;stroke:#79740e;stroke-width:1pt;stroke-opacity:1;fill:#79740e;fill-opacity:1"
       d="M 5.77,0.0 L -2.88,5.0 L -2.88,-5.0 L 5.77,0.0 z "
       id="path2207" /></marker><marker
     style="overflow:visible;"
     id="marker2041"
     refX="0.0"
     refY="0.0"
     orient="auto"
     inkscape:stockid="Arrow2Mend"
     inkscape:isstock="true"><path
       transform="scale(0.6) rotate(180) translate(0,0)"
       d="M 8.7185878,4.0337352 L -2.2072895,0.016013256 L 8.7185884,-4.0017078 C 6.9730900,-1.6296469 6.9831476,1.6157441 8.7185878,4.0337352 z "
       style="fill-rule:evenodd;stroke-width:0.625;stroke-linejoin:round;stroke:#79740e;stroke-opacity:1;fill:#79740e;fill-opacity:1"
       id="path2039" /></marker><marker
     style="overflow:visible;"
     id="marker2031"
     refX="0.0"
     refY="0.0"
     orient="auto"
     inkscape:stockid="Arrow2Mend"
     inkscape:isstock="true"><path
       transform="scale(0.6) rotate(180) translate(0,0)"
       d="M 8.7185878,4.0337352 L -2.2072895,0.016013256 L 8.7185884,-4.0017078 C 6.9730900,-1.6296469 6.9831476,1.6157441 8.7185878,4.0337352 z "
       style="fill-rule:evenodd;stroke-width:0.625;stroke-linejoin:round;stroke:#79740e;stroke-opacity:1;fill:#79740e;fill-opacity:1"
       id="path2029" /></marker><marker
     style="overflow:visible;"
     id="marker2021"
     refX="0.0"
     refY="0.0"
     orient="auto"
     inkscape:stockid="Arrow2Mend"
     inkscape:isstock="true"><path
       transform="scale(0.6) rotate(180) translate(0,0)"
       d="M 8.7185878,4.0337352 L -2.2072895,0.016013256 L 8.7185884,-4.0017078 C 6.9730900,-1.6296469 6.9831476,1.6157441 8.7185878,4.0337352 z "
       style="fill-rule:evenodd;stroke-width:0.625;stroke-linejoin:round;stroke:#79740e;stroke-opacity:1;fill:#79740e;fill-opacity:1"
       id="path2019" /></marker><marker
     style="overflow:visible;"
     id="marker2011"
     refX="0.0"
     refY="0.0"
     orient="auto"
     inkscape:stockid="Arrow2Mend"
     inkscape:isstock="true"><path
       transform="scale(0.6) rotate(180) translate(0,0)"
       d="M 8.7185878,4.0337352 L -2.2072895,0.016013256 L 8.7185884,-4.0017078 C 6.9730900,-1.6296469 6.9831476,1.6157441 8.7185878,4.0337352 z "
       style="fill-rule:evenodd;stroke-width:0.625;stroke-linejoin:round;stroke:#79740e;stroke-opacity:1;fill:#79740e;fill-opacity:1"
       id="path2009" /></marker><marker
     style="overflow:visible;"
     id="marker2001"
     refX="0.0"
     refY="0.0"
     orient="auto"
     inkscape:stockid="Arrow2Mend"
     inkscape:isstock="true"><path
       transform="scale(0.6) rotate(180) translate(0,0)"
       d="M 8.7185878,4.0337352 L -2.2072895,0.016013256 L 8.7185884,-4.0017078 C 6.9730900,-1.6296469 6.9831476,1.6157441 8.7185878,4.0337352 z "
       style="fill-rule:evenodd;stroke-width:0.625;stroke-linejoin:round;stroke:#79740e;stroke-opacity:1;fill:#79740e;fill-opacity:1"
       id="path1999" /></marker><marker
     style="overflow:visible;"
     id="marker1863"
     refX="0.0"
     refY="0.0"
     orient="auto"
     inkscape:stockid="Arrow1Send"
     inkscape:isstock="true"><path
       transform="scale(0.2) rotate(180) translate(6,0)"
       style="fill-rule:evenodd;stroke:#79740e;stroke-width:1pt;stroke-opacity:1;fill:#79740e;fill-opacity:1"
       d="M 0.0,0.0 L 5.0,-5.0 L -12.5,0.0 L 5.0,5.0 L 0.0,0.0 z "
       id="path1861" /></marker><marker
     style="overflow:visible;"
     id="marker1853"
     refX="0.0"
     refY="0.0"
     orient="auto"
     inkscape:stockid="Arrow1Send"
     inkscape:isstock="true"><path
       transform="scale(0.2) rotate(180) translate(6,0)"
       style="fill-rule:evenodd;stroke:#79740e;stroke-width:1pt;stroke-opacity:1;fill:#79740e;fill-opacity:1"
       d="M 0.0,0.0 L 5.0,-5.0 L -12.5,0.0 L 5.0,5.0 L 0.0,0.0 z "
       id="path1851" /></marker><marker
     style="overflow:visible;"
     id="marker1843"
     refX="0.0"
     refY="0.0"
     orient="auto"
     inkscape:stockid="Arrow1Send"
     inkscape:isstock="true"><path
       transform="scale(0.2) rotate(180) translate(6,0)"
       style="fill-rule:evenodd;stroke:#79740e;stroke-width:1pt;stroke-opacity:1;fill:#79740e;fill-opacity:1"
       d="M 0.0,0.0 L 5.0,-5.0 L -12.5,0.0 L 5.0,5.0 L 0.0,0.0 z "
       id="path1841" /></marker><marker
     style="overflow:visible;"
     id="marker1833"
     refX="0.0"
     refY="0.0"
     orient="auto"
     inkscape:stockid="Arrow1Send"
     inkscape:isstock="true"><path
       transform="scale(0.2) rotate(180) translate(6,0)"
       style="fill-rule:evenodd;stroke:#79740e;stroke-width:1pt;stroke-opacity:1;fill:#79740e;fill-opacity:1"
       d="M 0.0,0.0 L 5.0,-5.0 L -12.5,0.0 L 5.0,5.0 L 0.0,0.0 z "
       id="path1831" /></marker><marker
     style="overflow:visible;"
     id="marker1823"
     refX="0.0"
     refY="0.0"
     orient="auto"
     inkscape:stockid="Arrow1Send"
     inkscape:isstock="true"><path
       transform="scale(0.2) rotate(180) translate(6,0)"
       style="fill-rule:evenodd;stroke:#79740e;stroke-width:1pt;stroke-opacity:1;fill:#79740e;fill-opacity:1"
       d="M 0.0,0.0 L 5.0,-5.0 L -12.5,0.0 L 5.0,5.0 L 0.0,0.0 z "
       id="path1821" /></marker><marker
     style="overflow:visible;"
     id="marker1715"
     refX="0.0"
     refY="0.0"
     orient="auto"
     inkscape:stockid="Arrow1Mend"
     inkscape:isstock="true"><path
       transform="scale(0.4) rotate(180) translate(10,0)"
       style="fill-rule:evenodd;stroke:#79740e;stroke-width:1pt;stroke-opacity:1;fill:#79740e;fill-opacity:1"
       d="M 0.0,0.0 L 5.0,-5.0 L -12.5,0.0 L 5.0,5.0 L 0.0,0.0 z "
       id="path1713" /></marker><marker
     style="overflow:visible;"
     id="marker1705"
     refX="0.0"
     refY="0.0"
     orient="auto"
     inkscape:stockid="Arrow1Mend"
     inkscape:isstock="true"><path
       transform="scale(0.4) rotate(180) translate(10,0)"
       style="fill-rule:evenodd;stroke:#79740e;stroke-width:1pt;stroke-opacity:1;fill:#79740e;fill-opacity:1"
       d="M 0.0,0.0 L 5.0,-5.0 L -12.5,0.0 L 5.0,5.0 L 0.0,0.0 z "
       id="path1703" /></marker><marker
     style="overflow:visible;"
     id="marker1695"
     refX="0.0"
     refY="0.0"
     orient="auto"
     inkscape:stockid="Arrow1Mend"
     inkscape:isstock="true"><path
       transform="scale(0.4) rotate(180) translate(10,0)"
       style="fill-rule:evenodd;stroke:#79740e;stroke-width:1pt;stroke-opacity:1;fill:#79740e;fill-opacity:1"
       d="M 0.0,0.0 L 5.0,-5.0 L -12.5,0.0 L 5.0,5.0 L 0.0,0.0 z "
       id="path1693" /></marker><marker
     style="overflow:visible;"
     id="marker1685"
     refX="0.0"
     refY="0.0"
     orient="auto"
     inkscape:stockid="Arrow1Mend"
     inkscape:isstock="true"><path
       transform="scale(0.4) rotate(180) translate(10,0)"
       style="fill-rule:evenodd;stroke:#79740e;stroke-width:1pt;stroke-opacity:1;fill:#79740e;fill-opacity:1"
       d="M 0.0,0.0 L 5.0,-5.0 L -12.5,0.0 L 5.0,5.0 L 0.0,0.0 z "
       id="path1683" /></marker><marker
     style="overflow:visible;"
     id="marker1675"
     refX="0.0"
     refY="0.0"
     orient="auto"
     inkscape:stockid="Arrow1Mend"
     inkscape:isstock="true"><path
       transform="scale(0.4) rotate(180) translate(10,0)"
       style="fill-rule:evenodd;stroke:#79740e;stroke-width:1pt;stroke-opacity:1;fill:#79740e;fill-opacity:1"
       d="M 0.0,0.0 L 5.0,-5.0 L -12.5,0.0 L 5.0,5.0 L 0.0,0.0 z "
       id="path1673" /></marker><marker
     style="overflow:visible;"
     id="marker1597"
     refX="0.0"
     refY="0.0"
     orient="auto"
     inkscape:stockid="Arrow1Lend"
     inkscape:isstock="true"><path
       transform="scale(0.8) rotate(180) translate(12.5,0)"
       style="fill-rule:evenodd;stroke:#79740e;stroke-width:1pt;stroke-opacity:1;fill:#79740e;fill-opacity:1"
       d="M 0.0,0.0 L 5.0,-5.0 L -12.5,0.0 L 5.0,5.0 L 0.0,0.0 z "
       id="path1595" /></marker><marker
     style="overflow:visible;"
     id="marker1587"
     refX="0.0"
     refY="0.0"
     orient="auto"
     inkscape:stockid="Arrow1Lend"
     inkscape:isstock="true"><path
       transform="scale(0.8) rotate(180) translate(12.5,0)"
       style="fill-rule:evenodd;stroke:#79740e;stroke-width:1pt;stroke-opacity:1;fill:#79740e;fill-opacity:1"
       d="M 0.0,0.0 L 5.0,-5.0 L -12.5,0.0 L 5.0,5.0 L 0.0,0.0 z "
       id="path1585" /></marker><marker
     style="overflow:visible;"
     id="marker1577"
     refX="0.0"
     refY="0.0"
     orient="auto"
     inkscape:stockid="Arrow1Lend"
     inkscape:isstock="true"><path
       transform="scale(0.8) rotate(180) translate(12.5,0)"
       style="fill-rule:evenodd;stroke:#79740e;stroke-width:1pt;stroke-opacity:1;fill:#79740e;fill-opacity:1"
       d="M 0.0,0.0 L 5.0,-5.0 L -12.5,0.0 L 5.0,5.0 L 0.0,0.0 z "
       id="path1575" /></marker><marker
     style="overflow:visible;"
     id="marker1567"
     refX="0.0"
     refY="0.0"
     orient="auto"
     inkscape:stockid="Arrow1Lend"
     inkscape:isstock="true"><path
       transform="scale(0.8) rotate(180) translate(12.5,0)"
       style="fill-rule:evenodd;stroke:#79740e;stroke-width:1pt;stroke-opacity:1;fill:#79740e;fill-opacity:1"
       d="M 0.0,0.0 L 5.0,-5.0 L -12.5,0.0 L 5.0,5.0 L 0.0,0.0 z "
       id="path1565" /></marker><marker
     style="overflow:visible;"
     id="marker1557"
     refX="0.0"
     refY="0.0"
     orient="auto"
     inkscape:stockid="Arrow1Lend"
     inkscape:isstock="true"><path
       transform="scale(0.8) rotate(180) translate(12.5,0)"
       style="fill-rule:evenodd;stroke:#79740e;stroke-width:1pt;stroke-opacity:1;fill:#79740e;fill-opacity:1"
       d="M 0.0,0.0 L 5.0,-5.0 L -12.5,0.0 L 5.0,5.0 L 0.0,0.0 z "
       id="path1555" /></marker><filter
     style="color-interpolation-filters:sRGB;"
     inkscape:label="Drop Shadow"
     id="filter3205"><feFlood
       flood-opacity="1"
       flood-color="rgb(29,32,33)"
       result="flood"
       id="feFlood3195" /><feComposite
       in="flood"
       in2="SourceGraphic"
       operator="in"
       result="composite1"
       id="feComposite3197" /><feGaussianBlur
       in="composite1"
       stdDeviation="0"
       result="blur"
       id="feGaussianBlur3199" /><feOffset
       dx="-5"
       dy="5"
       result="offset"
       id="feOffset3201" /><feComposite
       in="SourceGraphic"
       in2="offset"
       operator="over"
       result="fbSourceGraphic"
       id="feComposite3203" /><feColorMatrix
       result="fbSourceGraphicAlpha"
       in="fbSourceGraphic"
       values="0 0 0 -1 0 0 0 0 -1 0 0 0 0 -1 0 0 0 0 1 0"
       id="feColorMatrix3207" /><feFlood
       id="feFlood3209"
       flood-opacity="1"
       flood-color="rgb(235,219,178)"
       result="flood"
       in="fbSourceGraphic" /><feComposite
       in2="fbSourceGraphic"
       id="feComposite3211"
       in="flood"
       operator="in"
       result="composite1" /><feGaussianBlur
       id="feGaussianBlur3213"
       in="composite1"
       stdDeviation="0"
       result="blur" /><feOffset
       id="feOffset3215"
       dx="-5"
       dy="5"
       result="offset" /><feComposite
       in2="offset"
       id="feComposite3217"
       in="fbSourceGraphic"
       operator="over"
       result="composite2" /></filter></defs><sodipodi:namedview
   pagecolor="#ffffff"
   bordercolor="#666666"
   borderopacity="1"
   objecttolerance="10"
   gridtolerance="10"
   guidetolerance="10"
   inkscape:pageopacity="0"
   inkscape:pageshadow="2"
   inkscape:window-width="1680"
   inkscape:window-height="1029"
   id="namedview54"
   showgrid="false"
   inkscape:object-paths="true"
   inkscape:zoom="0.5"
   inkscape:cx="483.32787"
   inkscape:cy="595.4791"
   inkscape:window-x="0"
   inkscape:window-y="0"
   inkscape:window-maximized="1"
   inkscape:current-layer="Layer_1"
   inkscape:document-rotation="0"
   inkscape:snap-global="true"
   showguides="true"
   inkscape:guide-bbox="true"
   inkscape:snap-object-midpoints="true" />
<style
   type="text/css"
   id="style2">
	.st0{fill:#428BCA;}
	.st1{opacity:0.25;fill:url(#SVGID_1_);enable-background:new    ;}
	.st2{fill:#3674A8;}
	.st3{fill:#E6B35A;}
	.st4{fill:#FFFFFF;}
	.st5{opacity:0.9;fill:#FFFFFF;enable-background:new    ;}
</style>
<title
   id="title4">shiny</title>
<path
   class="st0"
   d="M715.1,226.8L366.9,16l-347,210.8v401.5L367.5,829l347.6-200.7V226.8z"
   id="path6"
   style="fill:#fbf1c7;fill-opacity:1" />
<linearGradient
   id="SVGID_1_"
   gradientUnits="userSpaceOnUse"
   x1="366.1405"
   y1="-182.39"
   x2="367.4405"
   y2="281.13"
   gradientTransform="matrix(1 0 0 1 0 60)">
	<stop
   offset="0"
   style="stop-color:#FFFFFF;stop-opacity:0.83"
   id="stop8" />
	<stop
   offset="0.56"
   style="stop-color:#FFFFFF;stop-opacity:0.37"
   id="stop10" />
	<stop
   offset="1"
   style="stop-color:#FFFFFF;stop-opacity:0"
   id="stop12" />
</linearGradient>


<path
   class="st3"
   d="M367,633.9c0.3-0.3,0.6-0.6,0.9-0.9h-0.3C367.5,633.3,367.3,633.6,367,633.9z"
   id="path19" />
















<path
   style="fill:#b57614;stroke:#af3a03;stroke-width:7.55905512;stroke-linecap:butt;stroke-linejoin:miter;stroke-opacity:1;fill-opacity:1;stroke-miterlimit:4;stroke-dasharray:none"
   d="m 56.447775,649.40224 c 0,0 193.309725,70.76478 288.408345,56.70707 C 439.95473,692.05159 527.66497,590.03003 596.96696,557.06704 666.26895,524.10406 715.1,521.33079 715.1,521.33079 V 628.3 L 367.5,829 Z"
   id="path1379" /><path
   id="path1399"
   style="fill:#fabd2f;fill-opacity:1;stroke:#af3a03;stroke-width:7.55905512;stroke-linecap:butt;stroke-linejoin:miter;stroke-miterlimit:4;stroke-dasharray:none;stroke-opacity:1"
   d="m 715.09961,284.63521 c 0,0 -64.41228,22.85512 -164.42453,38.87419 C 449.48823,339.7166 393.87357,344.96508 257.95887,349.405 122.04418,353.84492 19.900391,308.00825 19.900391,308.00825 v 220.04644 l 15.015625,13.41211 c 26.371094,21.10111 88.184114,60.9801 190.796874,73.80273 141.88637,17.73035 370.125,-57.66015 370.125,-57.66015 l -0.0176,0.0176 c 0.38168,-0.18515 0.76591,-0.37953 1.14649,-0.56054 69.30199,-32.96298 118.13281,-35.73633 118.13281,-35.73633 z"
   sodipodi:nodetypes="csscccsccccc" /><path
   id="path1381"
   style="fill:#d65d0e;stroke:#af3a03;stroke-width:7.55905512;stroke-linecap:butt;stroke-linejoin:miter;stroke-opacity:1;fill-opacity:1;stroke-miterlimit:4;stroke-dasharray:none"
   d="M 19.900391 528.05469 L 19.900391 628.30078 L 56.447266 649.40234 C 56.447266 649.40234 249.75685 720.16708 344.85547 706.10938 C 439.43184 692.12885 526.69816 591.15852 595.82031 557.62695 L 595.83789 557.60938 C 595.83789 557.60938 367.59926 632.99988 225.71289 615.26953 C 83.826519 597.53918 19.900391 528.05469 19.900391 528.05469 z " /><path
   id="path1421"
   style="fill:#ebdbb2;fill-opacity:1;stroke:#928374;stroke-width:7.55906;stroke-linecap:butt;stroke-linejoin:miter;stroke-miterlimit:4;stroke-dasharray:none;stroke-opacity:1"
   d="M 87.708607,185.60676 19.9,226.8 l 3.91e-4,81.20781 c 0,0 102.143899,45.83641 238.058589,41.39649 135.9147,-4.43992 191.52995,-9.68733 292.7168,-25.89453 100.01225,-16.01907 164.42383,-38.875 164.42383,-38.875 L 715.1,226.8 647.0569,185.60676 c 0,0 -246.98765,15.14179 -363.08377,17.4436 -116.0961,2.30181 -196.264523,-17.4436 -196.264523,-17.4436 z"
   sodipodi:nodetypes="cccsscccsc" /><path
   class="st2"
   d="M734.9,637.4V213.1l-29.3-16.9L427.8,35.8L367.5,1l-60.3,34.8L29.4,196.2L0.1,213.1v424.2l29.3,16.9  l281.3,162.4l56.9,32.8l56.9-32.8l281.3-162.4L734.9,637.4z M29.4,621.5V231l50-28.9L367.5,35.8l0,0l287.2,165.8l50.9,29.4v390.5  L367.5,816.7L29.4,621.5z"
   id="path17"
   style="fill:#282828;fill-opacity:1" /><path
   d="m 67.363932,483.96029 q -7.765315,0 -14.335967,-2.83733 -6.570652,-2.83732 -6.570652,-6.71998 0,-2.688 2.538661,-6.71999 2.687994,-4.03199 4.629323,-4.03199 0.447999,0 2.538661,1.49333 2.090662,1.344 4.330657,2.38933 2.239995,0.896 5.077321,0.896 4.181324,0 6.421319,-1.94133 2.389328,-1.94133 2.389328,-5.52532 0,-4.03199 -2.687994,-6.27199 -2.687994,-2.23999 -9.109312,-5.82398 -7.018651,-3.88266 -10.901309,-8.66132 -3.882658,-4.92799 -3.882658,-13.5893 0,-10.60264 6.570652,-16.87463 6.570652,-6.27198 17.173294,-6.27198 6.570652,0 12.394638,2.09066 5.97332,2.09066 5.97332,5.82398 0,2.53867 -1.941329,6.71999 -1.941329,4.03199 -3.583992,4.03199 -0.447999,0 -3.583991,-1.49333 -2.98666,-1.64266 -6.570652,-1.64266 -3.733325,0 -6.122653,1.64266 -2.239995,1.64266 -2.239995,4.92799 0,3.28532 2.239995,5.37599 2.239995,2.09066 7.018651,4.62932 l 2.837327,1.64266 q 6.869317,3.88266 10.602642,8.95998 3.733325,5.07732 3.733325,13.5893 0,10.90131 -6.869318,17.6213 -6.719984,6.57065 -18.069292,6.57065 z"
   style="font-style:normal;font-variant:normal;font-weight:600;font-stretch:normal;font-size:149.333px;line-height:1.25;font-family:'Asap Condensed';-inkscape-font-specification:'Asap Condensed, Semi-Bold';letter-spacing:-3px;word-spacing:0px;fill:#282828;fill-opacity:1;stroke:none;stroke-width:7.55906;stroke-linejoin:bevel;stroke-miterlimit:4;stroke-dasharray:none;stroke-opacity:1"
   id="path1189" /><path
   d="m 120.96095,483.81096 q -8.06399,0 -13.14131,-5.07733 -4.92799,-5.22665 -4.92799,-16.42662 V 419.7471 h -2.68799 q -2.090662,0 -3.135993,-1.49333 -0.895998,-1.49333 -0.895998,-4.92799 v -2.23999 q 0,-3.43466 0.895998,-4.92799 1.045331,-1.49333 3.135993,-1.49333 h 2.68799 l 1.94133,-14.63463 q 0.448,-4.33066 6.86932,-4.33066 h 3.58399 q 6.42132,0 6.42132,4.33066 v 14.63463 h 7.01865 q 2.09066,0 2.98666,1.49333 1.04533,1.49333 1.04533,4.92799 v 2.23999 q 0,3.43466 -1.04533,4.92799 -0.896,1.49333 -2.98666,1.49333 h -7.01865 v 42.26124 q 0,3.58399 1.04533,5.22665 1.19467,1.49333 3.28533,1.49333 1.19466,0 2.53866,-0.29866 1.344,-0.29867 1.94133,-0.29867 1.64266,0 2.83732,3.73333 1.19467,3.73332 1.19467,5.67465 0,3.28533 -4.47999,4.77866 -4.33066,1.49333 -9.10931,1.49333 z"
   style="font-style:normal;font-variant:normal;font-weight:600;font-stretch:normal;font-size:149.333px;line-height:1.25;font-family:'Asap Condensed';-inkscape-font-specification:'Asap Condensed, Semi-Bold';letter-spacing:-3px;word-spacing:0px;fill:#282828;fill-opacity:1;stroke:none;stroke-width:7.55906;stroke-linejoin:bevel;stroke-miterlimit:4;stroke-dasharray:none;stroke-opacity:1"
   id="path1191" /><path
   d="m 151.70996,483.06429 q -7.91465,0 -7.91465,-4.33066 v -49.27988 q 0,-10.00531 -0.89599,-14.63464 -0.896,-4.62932 -0.896,-5.67465 0,-2.09066 4.92799,-3.13599 4.92798,-1.19467 8.81064,-1.19467 2.38933,0 3.43466,2.09066 1.04533,2.09067 1.49333,4.62933 0.59733,2.38933 0.74667,3.28532 2.53866,-5.22665 5.82398,-8.21331 3.28533,-2.98666 7.91465,-2.98666 4.03199,0 5.67466,1.79199 1.64266,1.792 1.64266,5.37599 0,2.98666 -1.04533,7.31732 -1.04533,4.33066 -2.53866,4.33066 -0.896,0 -3.136,-0.59734 -2.09066,-0.74666 -4.03199,-0.74666 -3.13599,0 -5.67465,2.53866 -2.53866,2.53866 -3.43466,5.52532 v 49.57855 q 0,4.33066 -8.06398,4.33066 z"
   style="font-style:normal;font-variant:normal;font-weight:600;font-stretch:normal;font-size:149.333px;line-height:1.25;font-family:'Asap Condensed';-inkscape-font-specification:'Asap Condensed, Semi-Bold';letter-spacing:-3px;word-spacing:0px;fill:#282828;fill-opacity:1;stroke:none;stroke-width:7.55906;stroke-linejoin:bevel;stroke-miterlimit:4;stroke-dasharray:none;stroke-opacity:1"
   id="path1193" /><path
   d="m 205.75509,483.81096 q -10.00531,0 -15.53063,-6.12266 -5.37599,-6.27198 -5.37599,-17.17329 0,-12.69331 8.81065,-20.15995 8.95998,-7.46665 27.77594,-7.46665 v -4.032 q 0,-10.15464 -10.45331,-10.15464 -4.03199,0 -7.01865,1.04533 -2.98666,0.896 -6.42132,2.53866 -1.94133,1.19467 -2.83733,1.19467 -1.94133,0 -4.47999,-4.03199 -2.38933,-4.18133 -2.38933,-6.42132 0,-2.38933 3.43466,-4.47999 3.58399,-2.24 9.25865,-3.58399 5.67465,-1.344 11.64797,-1.344 14.33597,0 21.20529,6.57065 6.86931,6.57065 6.86931,18.06929 v 29.71727 q 0,10.15464 0.896,14.9333 0.896,4.62932 0.896,5.67465 0,2.09066 -4.92799,3.28533 -4.92799,1.04533 -8.81065,1.04533 -2.23999,0 -3.28532,-1.94133 -1.04533,-1.94133 -2.09066,-6.12265 -2.53866,3.73332 -7.01865,6.42132 -4.33066,2.53866 -10.15465,2.53866 z m 5.22666,-14.4853 q 3.13599,0 5.82398,-1.64267 2.83733,-1.64266 4.62933,-4.47999 v -18.06929 q -19.11463,0 -19.11463,14.18664 0,4.77865 2.09067,7.46664 2.23999,2.53867 6.57065,2.53867 z"
   style="font-style:normal;font-variant:normal;font-weight:600;font-stretch:normal;font-size:149.333px;line-height:1.25;font-family:'Asap Condensed';-inkscape-font-specification:'Asap Condensed, Semi-Bold';letter-spacing:-3px;word-spacing:0px;fill:#282828;fill-opacity:1;stroke:none;stroke-width:7.55906;stroke-linejoin:bevel;stroke-miterlimit:4;stroke-dasharray:none;stroke-opacity:1"
   id="path1195" /><path
   d="m 357.1383,514.42422 q -13.73863,0 -20.90662,-4.92799 -7.01865,-4.92799 -7.01865,-14.78397 0,-6.12265 2.98666,-10.75197 3.136,-4.62932 8.66132,-7.31732 v -0.448 q -2.83733,-1.79199 -4.33066,-4.62932 -1.344,-2.98666 -1.344,-6.57065 0,-8.51198 7.16799,-13.73864 -10.90131,-5.97332 -10.90131,-21.35461 0,-12.69331 7.01865,-19.41329 7.01865,-6.86932 19.26396,-6.86932 4.77865,0 8.81064,1.04533 h 20.45862 q 1.94133,0 2.688,1.49333 0.89599,1.344 0.89599,4.33066 v 2.23999 q 0,2.98666 -0.74666,4.33066 -0.74667,1.344 -2.53866,1.344 -4.03199,0 -6.27199,-0.448 l -0.29866,0.448 q 2.98666,4.77865 2.98666,11.7973 0,11.34931 -6.42132,17.77063 -6.42132,6.42132 -17.47196,6.71998 -8.66132,0.448 -8.66132,7.01865 0,3.88266 3.136,5.37599 3.13599,1.344 9.85597,2.53866 1.49333,0.14933 4.47999,0.74667 8.81065,1.79199 14.03731,6.42132 5.22665,4.62932 5.22665,13.73863 0,11.34931 -8.06398,17.62129 -8.06398,6.27199 -22.69862,6.27199 z m 0.29867,-72.72517 q 4.62932,0 7.31732,-2.68799 2.83732,-2.688 2.83732,-9.55731 0,-7.31732 -2.68799,-10.00531 -2.68799,-2.83733 -7.46665,-2.83733 -4.62932,0 -7.31732,2.83733 -2.53866,2.68799 -2.53866,10.00531 0,12.2453 9.85598,12.2453 z m 1.344,58.98653 q 6.42132,0 9.70664,-2.38932 3.28533,-2.24 3.28533,-6.42132 0,-4.62933 -3.43466,-6.27199 -3.43466,-1.64266 -10.90131,-2.83733 -4.18132,-0.74666 -5.67465,-1.04533 -2.83733,1.64267 -4.47999,4.18133 -1.64267,2.68799 -1.64267,5.97332 0,4.33065 3.43466,6.57065 3.43466,2.23999 9.70665,2.23999 z"
   style="font-style:normal;font-variant:normal;font-weight:600;font-stretch:normal;font-size:149.333px;line-height:1.25;font-family:'Asap Condensed';-inkscape-font-specification:'Asap Condensed, Semi-Bold';letter-spacing:-3px;word-spacing:0px;fill:#282828;fill-opacity:1;stroke:none;stroke-width:7.55906;stroke-linejoin:bevel;stroke-miterlimit:4;stroke-dasharray:none;stroke-opacity:1"
   id="path1201" /><path
   d="m 462.68975,483.81096 q -10.00531,0 -15.53063,-6.12266 -5.37598,-6.27198 -5.37598,-17.17329 0,-12.69331 8.81064,-20.15995 8.95998,-7.46665 27.77594,-7.46665 v -4.032 q 0,-10.15464 -10.45331,-10.15464 -4.03199,0 -7.01865,1.04533 -2.98666,0.896 -6.42132,2.53866 -1.94133,1.19467 -2.83733,1.19467 -1.94133,0 -4.47999,-4.03199 -2.38933,-4.18133 -2.38933,-6.42132 0,-2.38933 3.43466,-4.47999 3.584,-2.24 9.25865,-3.58399 5.67465,-1.344 11.64797,-1.344 14.33597,0 21.20529,6.57065 6.86932,6.57065 6.86932,18.06929 v 29.71727 q 0,10.15464 0.89599,14.9333 0.896,4.62932 0.896,5.67465 0,2.09066 -4.92799,3.28533 -4.92799,1.04533 -8.81064,1.04533 -2.24,0 -3.28533,-1.94133 -1.04533,-1.94133 -2.09066,-6.12265 -2.53866,3.73332 -7.01865,6.42132 -4.33066,2.53866 -10.15465,2.53866 z m 5.22666,-14.4853 q 3.13599,0 5.82399,-1.64267 2.83732,-1.64266 4.62932,-4.47999 v -18.06929 q -19.11462,0 -19.11462,14.18664 0,4.77865 2.09066,7.46664 2.23999,2.53867 6.57065,2.53867 z"
   style="font-style:normal;font-variant:normal;font-weight:600;font-stretch:normal;font-size:149.333px;line-height:1.25;font-family:'Asap Condensed';-inkscape-font-specification:'Asap Condensed, Semi-Bold';letter-spacing:-3px;word-spacing:0px;fill:#282828;fill-opacity:1;stroke:none;stroke-width:7.55906;stroke-linejoin:bevel;stroke-miterlimit:4;stroke-dasharray:none;stroke-opacity:1"
   id="path1205" /><path
   d="m 521.06549,513.67755 q -7.76532,0 -7.76532,-4.33065 v -79.74382 q 0,-10.15464 -0.896,-14.78397 -0.74666,-4.62932 -0.74666,-5.67465 0,-2.09066 5.07732,-3.13599 5.07732,-1.19467 8.81064,-1.19467 2.688,0 3.73333,2.38933 1.04533,2.38933 1.94133,7.01865 2.68799,-4.92799 6.86932,-7.76531 4.33065,-2.83733 9.55731,-2.83733 6.86932,0 11.94664,4.92799 5.22665,4.77865 8.06398,13.88797 2.83733,9.10931 2.83733,21.65328 0,18.96529 -6.71999,29.4186 -6.57065,10.30398 -18.06929,10.30398 -8.06398,0 -13.43997,-5.37599 v 30.91193 q 0,4.33065 -7.91465,4.33065 z m 19.56262,-45.09856 q 5.37598,0 7.91465,-5.82399 2.68799,-5.97332 2.68799,-18.96529 0,-24.63994 -9.40798,-24.63994 -5.52532,0 -9.55731,7.46665 v 38.22925 q 3.43466,3.73332 8.36265,3.73332 z"
   style="font-style:normal;font-variant:normal;font-weight:600;font-stretch:normal;font-size:149.333px;line-height:1.25;font-family:'Asap Condensed';-inkscape-font-specification:'Asap Condensed, Semi-Bold';letter-spacing:-3px;word-spacing:0px;fill:#282828;fill-opacity:1;stroke:none;stroke-width:7.55906;stroke-linejoin:bevel;stroke-miterlimit:4;stroke-dasharray:none;stroke-opacity:1"
   id="path1207" /><path
   d="m 590.19322,483.06429 q -7.61598,0 -7.61598,-4.33066 V 374.49921 q 0,-4.18133 7.61598,-4.18133 h 4.03199 q 7.46665,0 7.46665,4.18133 v 39.12524 q 3.28533,-4.47999 7.91465,-7.16798 4.77866,-2.83733 10.60264,-2.83733 8.21332,0 12.84264,5.52532 4.77866,5.37599 4.77866,16.12796 v 53.46121 q 0,4.33066 -7.61599,4.33066 h -3.73332 q -4.03199,0 -5.82399,-1.04533 -1.79199,-1.04533 -1.79199,-3.28533 v -49.72788 q 0,-9.70665 -7.61599,-9.70665 -3.28532,0 -5.82398,2.09067 -2.53866,2.09066 -3.73333,4.62932 v 52.71454 q 0,2.24 -1.94133,3.28533 -1.79199,1.04533 -5.67465,1.04533 z"
   style="font-style:normal;font-variant:normal;font-weight:600;font-stretch:normal;font-size:149.333px;line-height:1.25;font-family:'Asap Condensed';-inkscape-font-specification:'Asap Condensed, Semi-Bold';letter-spacing:-3px;word-spacing:0px;fill:#282828;fill-opacity:1;stroke:none;stroke-width:7.55906;stroke-linejoin:bevel;stroke-miterlimit:4;stroke-dasharray:none;stroke-opacity:1"
   id="path1209" /><path
   d="m 660.51549,483.06429 q -7.91465,0 -7.91465,-4.33066 v -49.27988 q 0,-10.00531 -0.896,-14.63464 -0.896,-4.62932 -0.896,-5.67465 0,-2.09066 4.92799,-3.13599 4.92799,-1.19467 8.81065,-1.19467 2.38933,0 3.43466,2.09066 1.04533,2.09067 1.49333,4.62933 0.59733,2.38933 0.74666,3.28532 2.53866,-5.22665 5.82399,-8.21331 3.28533,-2.98666 7.91465,-2.98666 4.03199,0 5.67465,1.79199 1.64267,1.792 1.64267,5.37599 0,2.98666 -1.04534,7.31732 -1.04533,4.33066 -2.53866,4.33066 -0.89599,0 -3.13599,-0.59734 -2.09066,-0.74666 -4.03199,-0.74666 -3.13599,0 -5.67465,2.53866 -2.53866,2.53866 -3.43466,5.52532 v 49.57855 q 0,4.33066 -8.06398,4.33066 z"
   style="font-style:normal;font-weight:normal;font-size:149.333px;line-height:1.25;font-family:sans-serif;letter-spacing:-3px;word-spacing:0px;fill:#282828;fill-opacity:1;stroke:none;stroke-width:7.55906;stroke-linejoin:bevel;stroke-miterlimit:4;stroke-dasharray:none;stroke-opacity:1"
   id="path1211" /><path
   style="fill:none;stroke:#076678;stroke-width:7.55906;stroke-linecap:butt;stroke-linejoin:miter;stroke-miterlimit:4;stroke-dasharray:none;stroke-opacity:1"
   d="m 213.85294,456.85281 143.9718,-28.16143 111.36209,28.16143 73.3208,-23.49063 -73.3208,23.49063 -111.36209,33.85132 z"
   id="path1187" /><circle
   style="fill:#fbf1c7;fill-opacity:1;stroke:#076678;stroke-width:7.55906;stroke-linecap:round;stroke-linejoin:bevel;stroke-miterlimit:4;stroke-dasharray:none;stroke-opacity:1"
   id="path1110"
   cx="213.85294"
   cy="456.85281"
   r="13.842166" /><circle
   style="fill:#fbf1c7;fill-opacity:1;stroke:#076678;stroke-width:7.55906;stroke-linecap:round;stroke-linejoin:bevel;stroke-miterlimit:4;stroke-dasharray:none;stroke-opacity:1"
   id="path1110-3"
   cx="357.82474"
   cy="428.69138"
   r="13.842166" /><circle
   style="fill:#fbf1c7;fill-opacity:1;stroke:#076678;stroke-width:7.55906;stroke-linecap:round;stroke-linejoin:bevel;stroke-miterlimit:4;stroke-dasharray:none;stroke-opacity:1"
   id="path1110-3-6"
   cx="357.82474"
   cy="490.70413"
   r="13.842166" /><circle
   style="fill:#fbf1c7;fill-opacity:1;stroke:#076678;stroke-width:7.55906;stroke-linecap:round;stroke-linejoin:bevel;stroke-miterlimit:4;stroke-dasharray:none;stroke-opacity:1"
   id="path1110-5"
   cx="469.18683"
   cy="456.85281"
   r="13.842166" /><circle
   style="fill:#fbf1c7;fill-opacity:1;stroke:#076678;stroke-width:7.55906;stroke-linecap:round;stroke-linejoin:bevel;stroke-miterlimit:4;stroke-dasharray:none;stroke-opacity:1"
   id="path1110-35"
   cx="542.50763"
   cy="433.36218"
   r="13.842166" /><path
   d="m 275.62943,483.81096 q -8.06398,0 -13.1413,-5.07733 -4.92799,-5.22665 -4.92799,-16.42662 V 419.7471 h -2.68799 q -2.09066,0 -3.136,-1.49333 -0.89599,-1.49333 -0.89599,-4.92799 v -2.23999 q 0,-3.43466 0.89599,-4.92799 1.04534,-1.49333 3.136,-1.49333 h 2.68799 l 1.94133,-14.63463 q 0.448,-4.33066 6.86932,-4.33066 h 3.58399 q 6.42132,0 6.42132,4.33066 v 14.63463 h 7.01865 q 2.09066,0 2.98666,1.49333 1.04533,1.49333 1.04533,4.92799 v 2.23999 q 0,3.43466 -1.04533,4.92799 -0.896,1.49333 -2.98666,1.49333 h -7.01865 v 42.26124 q 0,3.58399 1.04533,5.22665 1.19466,1.49333 3.28532,1.49333 1.19467,0 2.53867,-0.29866 1.34399,-0.29867 1.94132,-0.29867 1.64267,0 2.83733,3.73333 1.19467,3.73332 1.19467,5.67465 0,3.28533 -4.47999,4.77866 -4.33066,1.49333 -9.10932,1.49333 z"
   style="font-style:normal;font-variant:normal;font-weight:600;font-stretch:normal;font-size:149.333px;line-height:1.25;font-family:'Asap Condensed';-inkscape-font-specification:'Asap Condensed, Semi-Bold';letter-spacing:-3px;word-spacing:0px;fill:#282828;fill-opacity:1;stroke:none;stroke-width:7.55906;stroke-linejoin:bevel;stroke-miterlimit:4;stroke-dasharray:none;stroke-opacity:1"
   id="path1197" /><path
   d="m 306.22912,483.06429 q -7.91465,0 -7.91465,-4.33066 v -70.03717 q 0,-4.33066 7.91465,-4.33066 h 2.98666 q 7.91464,0 7.91464,4.33066 v 70.03717 q 0,4.33066 -7.91464,4.33066 z m 1.64266,-87.06113 q -9.55731,0 -9.55731,-4.33066 v -10.75198 q 0,-4.18132 9.55731,-4.18132 9.40798,0 9.40798,4.18132 v 10.75198 q 0,4.33066 -9.40798,4.33066 z"
   style="font-style:normal;font-variant:normal;font-weight:600;font-stretch:normal;font-size:149.333px;line-height:1.25;font-family:'Asap Condensed';-inkscape-font-specification:'Asap Condensed, Semi-Bold';letter-spacing:-3px;word-spacing:0px;fill:#282828;fill-opacity:1;stroke:none;stroke-width:7.55906;stroke-linejoin:bevel;stroke-miterlimit:4;stroke-dasharray:none;stroke-opacity:1"
   id="path1199" /><path
   d="m 408.64464,483.06429 q -7.91465,0 -7.91465,-4.33066 v -49.27988 q 0,-10.00531 -0.896,-14.63464 -0.896,-4.62932 -0.896,-5.67465 0,-2.09066 4.92799,-3.13599 4.92799,-1.19467 8.81065,-1.19467 2.38933,0 3.43466,2.09066 1.04533,2.09067 1.49333,4.62933 0.59733,2.38933 0.74666,3.28532 2.53866,-5.22665 5.82399,-8.21331 3.28533,-2.98666 7.91465,-2.98666 4.03199,0 5.67465,1.79199 1.64267,1.792 1.64267,5.37599 0,2.98666 -1.04534,7.31732 -1.04533,4.33066 -2.53866,4.33066 -0.89599,0 -3.13599,-0.59734 -2.09066,-0.74666 -4.03199,-0.74666 -3.13599,0 -5.67465,2.53866 -2.53866,2.53866 -3.43466,5.52532 v 49.57855 q 0,4.33066 -8.06398,4.33066 z"
   style="font-style:normal;font-variant:normal;font-weight:600;font-stretch:normal;font-size:149.333px;line-height:1.25;font-family:'Asap Condensed';-inkscape-font-specification:'Asap Condensed, Semi-Bold';letter-spacing:-3px;word-spacing:0px;fill:#282828;fill-opacity:1;stroke:none;stroke-width:7.55906;stroke-linejoin:bevel;stroke-miterlimit:4;stroke-dasharray:none;stroke-opacity:1"
   id="path1203" /></svg>
